<?xml version="1.0" encoding="UTF-8"?><svg id="a" xmlns="http://www.w3.org/2000/svg" viewBox="0 0 167.06 312"><defs><style>.b{stroke-width:6px;}.b,.c,.d,.e{stroke:#231f20;stroke-miterlimit:10;}.b,.c,.e{fill:none;}.c{stroke-width:20px;}.d{fill:#231f20;}.e{stroke-width:7px;}</style></defs><polyline class="c" points="167.06 10 10 10 10 312"/><line class="c" x1="9.89" y1="91.39" x2="82.09" y2="7.37"/><line class="e" x1="114.28" y1="17.75" x2="114.28" y2="104.97"/><path class="d" d="M125.73,60.19h-22.3c-3.31,0-6-2.69-6-6,0-3.31,2.69-6,6-6h22.3c7.78-.11,7.79,12.11,0,12Z"/><path class="d" d="M125.73,72.98h-22.3c-3.31,0-6-2.69-6-6,0-3.31,2.69-6,6-6h22.3c7.78-.11,7.79,12.11,0,12Z"/><path class="d" d="M125.73,85.17h-22.3c-3.31,0-6-2.69-6-6,0-3.31,2.69-6,6-6h22.3c7.78-.11,7.79,12.11,0,12Z"/><path class="d" d="M125.73,97.35h-22.3c-3.31,0-6-2.69-6-6,0-3.31,2.69-6,6-6h22.3c7.78-.11,7.79,12.11,0,12Z"/><path class="d" d="M125.73,110.13h-22.3c-7.78,.11-7.79-12.11,0-12h22.3c7.78-.11,7.79,12.11,0,12Z"/><path class="b" d="M132.8,184.98c20.35-15.56,.3-40.81-10.18-69.05-1.83-4.94,.58-12.81,.16-18-.65-8.02-17.03-7.76-17.18-.36-.13,6.46,4.16,12.29,1.03,19.38-15.54,35.14-20.77,57.16-7.56,66.79,10.47,7.64,23.79,8.84,33.73,1.25Z"/></svg>